<svg width="10" height="11" viewBox="0 0 10 11" fill="none" xmlns="http://www.w3.org/2000/svg">
<path d="M10.0002 7.95999V9.45999C10.0008 9.59924 9.97225 9.73707 9.91647 9.86466C9.86068 9.99225 9.77886 10.1068 9.67625 10.2009C9.57364 10.2951 9.4525 10.3667 9.32059 10.4113C9.18867 10.456 9.0489 10.4725 8.91021 10.46C7.37163 10.2928 5.89371 9.76706 4.59521 8.92499C3.38712 8.15732 2.36288 7.13307 1.59521 5.92499C0.7502 4.62059 0.224332 3.13548 0.0602107 1.58999C0.0477159 1.45172 0.0641482 1.31237 0.108461 1.1808C0.152774 1.04923 0.223996 0.928332 0.317594 0.825798C0.411191 0.723264 0.525113 0.641342 0.652106 0.585248C0.779099 0.529155 0.916381 0.500118 1.05521 0.499987H2.55521C2.79786 0.497599 3.03311 0.583527 3.21709 0.741754C3.40108 0.899981 3.52125 1.11971 3.55521 1.35999C3.61852 1.84002 3.73594 2.31135 3.90521 2.76499C3.97248 2.94395 3.98704 3.13844 3.94716 3.32543C3.90729 3.51241 3.81464 3.68404 3.68021 3.81999L3.04521 4.45499C3.75699 5.70676 4.79344 6.74321 6.04521 7.45499L6.68021 6.81999C6.81616 6.68556 6.98779 6.59291 7.17477 6.55303C7.36175 6.51316 7.55625 6.52772 7.73521 6.59499C8.18885 6.76426 8.66018 6.88168 9.14021 6.94499C9.38309 6.97925 9.60491 7.10159 9.76348 7.28873C9.92204 7.47588 10.0063 7.71478 10.0002 7.95999Z" fill="white"/>
</svg>
