<svg width="20" height="20" viewBox="0 0 16 17" fill="none" xmlns="http://www.w3.org/2000/svg">
<path d="M0 4.11133C0 1.90219 1.79086 0.111328 4 0.111328H12C14.2091 0.111328 16 1.90219 16 4.11133V12.1113C16 14.3205 14.2091 16.1113 12 16.1113H4C1.79086 16.1113 0 14.3205 0 12.1113V4.11133Z" fill="#476FD3"/>
<g clip-path="url(#clip0_436_116)">
<path d="M12.6283 4.24035C12.2098 3.90045 11.6078 3.94956 11.2833 4.34911L7.0052 9.62347L4.77224 6.72181C4.43915 6.28934 3.81841 6.20844 3.38591 6.54114C2.95302 6.87404 2.87215 7.49498 3.20524 7.92805L6.2024 11.8227C6.53549 12.2552 7.15642 12.3363 7.58911 12.0034C7.71248 11.9085 7.80371 11.7886 7.8684 11.6576L12.7992 5.57911C13.1235 5.17898 13.0469 4.57987 12.6283 4.24035Z" fill="white"/>
</g>
<defs>
<clipPath id="clip0_436_116">
<rect width="10" height="10" fill="white" transform="translate(3 3.11133)"/>
</clipPath>
</defs>
</svg>
