<svg width="24" height="25" viewBox="0 0 24 25" fill="none" xmlns="http://www.w3.org/2000/svg">
<g clip-path="url(#clip0_113_3721)">
<path d="M19.7581 20.6152C19.6454 20.6153 19.5339 20.593 19.4299 20.5499C19.3258 20.5067 19.2314 20.4434 19.1519 20.3636L3.63418 4.8479C3.47323 4.68695 3.38281 4.46865 3.38281 4.24104C3.38281 4.01342 3.47323 3.79513 3.63418 3.63418C3.79513 3.47323 4.01342 3.38281 4.24104 3.38281C4.46865 3.38281 4.68695 3.47323 4.8479 3.63418L20.3656 19.1519C20.4852 19.2719 20.5665 19.4246 20.5994 19.5908C20.6323 19.757 20.6153 19.9292 20.5505 20.0857C20.4856 20.2422 20.3759 20.376 20.2351 20.4702C20.0944 20.5645 19.9288 20.6149 19.7594 20.6152H19.7581Z" fill="#1A2030"/>
<path d="M4.2415 20.6152C4.07197 20.6152 3.90626 20.5649 3.76528 20.4708C3.62429 20.3767 3.51436 20.2429 3.44936 20.0863C3.38436 19.9298 3.3672 19.7574 3.40005 19.5911C3.43291 19.4248 3.5143 19.272 3.63395 19.1519L19.1517 3.63418C19.3126 3.47323 19.5309 3.38281 19.7585 3.38281C19.9861 3.38281 20.2044 3.47323 20.3654 3.63418C20.5263 3.79513 20.6168 4.01342 20.6168 4.24104C20.6168 4.46865 20.5263 4.68695 20.3654 4.8479L4.84767 20.3656C4.76801 20.445 4.67347 20.508 4.56945 20.5508C4.46543 20.5936 4.35399 20.6155 4.2415 20.6152Z" fill="#1A2030"/>
</g>
<defs>
<clipPath id="clip0_113_3721">
<rect width="24" height="24" fill="white" transform="translate(0 0.5)"/>
</clipPath>
</defs>
</svg>
