<svg width="12" height="12" viewBox="0 0 12 12" fill="none" xmlns="http://www.w3.org/2000/svg">
<path d="M6.25 2C5.40943 2 4.58774 2.24926 3.88883 2.71625C3.18992 3.18325 2.64519 3.84701 2.32351 4.62359C2.00184 5.40018 1.91768 6.25471 2.08166 7.07913C2.24565 7.90355 2.65042 8.66083 3.2448 9.2552C3.83917 9.84958 4.59645 10.2543 5.42087 10.4183C6.24529 10.5823 7.09982 10.4982 7.87641 10.1765C8.65299 9.85481 9.31675 9.31008 9.78375 8.61117C10.2507 7.91226 10.5 7.09057 10.5 6.25C10.4988 5.12321 10.0506 4.04291 9.25385 3.24615C8.45709 2.44939 7.37679 2.00123 6.25 2ZM7.6158 7.61618C7.54334 7.68861 7.44509 7.7293 7.34264 7.7293C7.24019 7.7293 7.14193 7.68861 7.06948 7.61618L5.97684 6.52316C5.9052 6.45099 5.8647 6.35362 5.86402 6.25193L5.86364 6.25V4.70454C5.86364 4.60207 5.90434 4.5038 5.9768 4.43134C6.04926 4.35889 6.14753 4.31818 6.25 4.31818C6.35247 4.31818 6.45074 4.35889 6.5232 4.43134C6.59566 4.5038 6.63636 4.60207 6.63636 4.70454V6.09004L7.6158 7.06986C7.68823 7.14232 7.72892 7.24057 7.72892 7.34302C7.72892 7.44547 7.68823 7.54373 7.6158 7.61618Z" fill="#6C7F9A" fill-opacity="0.45"/>
</svg>
