<svg width="56" height="56" viewBox="0 0 56 56" fill="none" xmlns="http://www.w3.org/2000/svg">
<path d="M27.9998 49.875C37.5037 49.875 45.2082 47.3939 45.2082 44.3334C45.2082 41.2728 37.5037 38.7917 27.9998 38.7917C18.4959 38.7917 10.7915 41.2728 10.7915 44.3334C10.7915 47.3939 18.4959 49.875 27.9998 49.875Z" fill="#6C7F9A" fill-opacity="0.3"/>
<path d="M53.3749 20.1717L41.5683 24.3834C41.1366 24.535 40.8916 25.0017 41.0199 25.4334C41.4166 26.9267 40.6933 28.49 39.3049 29.1434C37.7066 29.9017 35.7816 29.225 35.0233 27.6384C34.701 26.9603 34.6249 26.1912 34.808 25.4631C34.9911 24.735 35.4219 24.0933 36.0266 23.6484C36.3533 23.4034 36.4699 22.9484 36.2949 22.575L28.7933 6.62669C28.5016 6.02003 27.4983 6.02003 27.2066 6.62669L19.7049 22.575C19.5299 22.9484 19.6466 23.4034 19.9733 23.6484C20.5779 24.0933 21.0088 24.735 21.1919 25.4631C21.375 26.1912 21.2989 26.9603 20.9766 27.6384C20.2183 29.225 18.2933 29.9017 16.6949 29.1434C16.0202 28.8233 15.4791 28.2767 15.1658 27.5988C14.8524 26.921 14.7867 26.1547 14.9799 25.4334C15.1083 25.0017 14.8633 24.535 14.4316 24.3834L2.62493 20.1717C1.92843 19.9395 1.23893 20.6337 1.5166 21.3267L9.78826 42C12.2849 38.3834 20.6616 37.0417 27.9999 37.0417C35.3383 37.0417 43.7149 38.3834 46.2116 42L54.4833 21.3267C54.7516 20.643 54.0749 19.922 53.3749 20.1717Z" fill="#6C7F9A" fill-opacity="0.3"/>
</svg>
