<svg width="45" height="45" viewBox="0 0 45 45" fill="none" xmlns="http://www.w3.org/2000/svg">
<g clip-path="url(#clip0_113_3212)">
<path d="M2.46953 21.2483C2.50982 21.2893 2.57369 21.3449 2.65897 21.4127C3.62909 19.1615 4.86313 17.0334 6.33518 15.0732C7.69025 13.2695 9.24015 11.6208 10.9568 10.1569C9.63079 11.9172 8.53243 13.8379 7.68772 15.8734C6.73397 18.1736 6.11061 20.5973 5.83619 23.0723C8.29957 23.9095 11.6956 24.1145 14.6761 21.0636C19.8247 15.7935 13.8919 9.00397 22.9362 2.92716C22.9362 2.92716 11.3106 -0.317925 3.89248 7.27474C-3.52635 14.8681 1.82139 20.5965 2.46953 21.2483ZM39.4936 27.1858C39.4936 27.1858 47.5523 18.0889 44.1718 7.96425C40.7921 -2.16002 33.3486 0.131713 32.4845 0.427479C32.4062 0.456081 32.3296 0.488911 32.2548 0.525825C33.5591 1.48425 35.9887 3.55534 37.5601 7.06933C38.3087 8.74946 38.7707 10.543 38.9272 12.3757C37.7103 10.4187 36.2799 8.60287 34.6623 6.96155C33.0627 5.33883 31.2883 3.89827 29.3715 2.66623C27.532 4.5272 25.8325 7.51679 27.1916 11.5849C29.5378 18.6122 38.1774 16.2638 39.4936 27.1858ZM35.3783 34.1053C34.6572 31.5744 32.8928 28.6236 28.7234 27.8709C21.5216 26.5707 19.3874 35.3809 9.31715 31.2884C9.31715 31.2884 13.2935 42.8338 23.6693 44.7078C34.045 46.5819 35.652 38.8622 35.812 37.9517C35.8218 37.894 35.8312 37.8094 35.8378 37.7002C33.4073 38.4794 30.8688 38.8689 28.3166 38.8542C26.1434 38.8401 23.9822 38.5325 21.8914 37.9397C24.3399 37.8334 26.7663 37.4301 29.1175 36.7385C31.2962 36.0971 33.3962 35.2139 35.3783 34.1053Z" fill="#6C7F9A" fill-opacity="0.3"/>
</g>
<defs>
<clipPath id="clip0_113_3212">
<rect width="45" height="45" fill="white"/>
</clipPath>
</defs>
</svg>
