<svg width="22" height="22" viewBox="0 0 22 22" fill="none" xmlns="http://www.w3.org/2000/svg">
<path d="M10.5 6C7.25197 6 4.30648 7.77703 2.13302 10.6634C1.95566 10.8999 1.95566 11.2302 2.13302 11.4667C4.30648 14.3566 7.25197 16.1336 10.5 16.1336C13.748 16.1336 16.6935 14.3566 18.867 11.4702C19.0443 11.2337 19.0443 10.9033 18.867 10.6669C16.6935 7.77703 13.748 6 10.5 6ZM10.733 14.6348C8.57691 14.7704 6.79641 12.9934 6.93203 10.8338C7.04332 9.05329 8.4865 7.61011 10.267 7.49882C12.4231 7.3632 14.2036 9.14023 14.068 11.2998C13.9532 13.0768 12.51 14.52 10.733 14.6348ZM10.6252 12.9864C9.46369 13.0594 8.50389 12.1031 8.58039 10.9416C8.63951 9.98179 9.41848 9.2063 10.3783 9.1437C11.5398 9.07068 12.4996 10.027 12.4231 11.1885C12.3605 12.1518 11.5815 12.9273 10.6252 12.9864Z" fill="#6C7F9A"/>
</svg>
