<svg width="12" height="13" viewBox="0 0 12 13" fill="none" xmlns="http://www.w3.org/2000/svg">
<path d="M6 10.5C5.37224 10.5 4.85594 10.0228 4.79409 9.41133C4.31799 9.79996 3.61547 9.77232 3.17157 9.32843C2.72768 8.88453 2.70004 8.18201 3.08867 7.70591C2.47722 7.64406 2 7.12776 2 6.5C2 5.87224 2.47722 5.35594 3.08867 5.29409C2.70005 4.81799 2.72768 4.11547 3.17157 3.67157C3.61547 3.22768 4.31799 3.20004 4.79409 3.58867C4.85594 2.97722 5.37224 2.5 6 2.5C6.62776 2.5 7.14406 2.97722 7.20591 3.58867C7.68201 3.20004 8.38453 3.22768 8.82843 3.67157C9.27232 4.11547 9.29996 4.81799 8.91133 5.29409C9.52278 5.35594 10 5.87224 10 6.5C10 7.12776 9.52278 7.64406 8.91133 7.70591C9.29996 8.18201 9.27232 8.88453 8.82843 9.32843C8.38453 9.77232 7.68201 9.79996 7.20591 9.41133C7.14406 10.0228 6.62776 10.5 6 10.5Z" fill="#6C7F9A"/>
</svg>
