<svg width="14" height="17" viewBox="0 0 14 17" fill="none" xmlns="http://www.w3.org/2000/svg">
<path fill-rule="evenodd" clip-rule="evenodd" d="M6.95799 0C5.11383 0.00231227 3.34582 0.735727 2.04153 2.03947C0.73724 3.34322 0.00308501 5.11092 0 6.95508C0 9.61643 1.68193 12.0417 3.28515 13.8431C4.88837 15.6445 6.4916 16.8455 6.4916 16.8455C6.62531 16.9458 6.78794 17 6.95508 17C7.12221 17 7.28484 16.9458 7.41855 16.8455C7.41855 16.8455 9.02178 15.6445 10.625 13.8431C12.2282 12.0417 13.9101 9.61643 13.9101 6.95508C13.9086 5.11095 13.1753 3.34279 11.8714 2.0388C10.5674 0.734804 8.80212 0.00154385 6.95799 0ZM6.95508 3.86523C7.77455 3.86523 8.56047 4.19076 9.13993 4.77022C9.71939 5.34968 10.0449 6.1356 10.0449 6.95508C10.0449 7.77455 9.71939 8.56047 9.13993 9.13993C8.56047 9.71939 7.77455 10.0449 6.95508 10.0449C6.1356 10.0449 5.34968 9.71939 4.77022 9.13993C4.19076 8.56047 3.86523 7.77455 3.86523 6.95508C3.86523 6.1356 4.19076 5.34968 4.77022 4.77022C5.34968 4.19076 6.1356 3.86523 6.95508 3.86523Z" fill="#6C7F9A"/>
</svg>
