<svg width="24" height="25" viewBox="0 0 24 25" fill="none" xmlns="http://www.w3.org/2000/svg">
<path d="M23.25 6.5H0.75C0.551088 6.5 0.360322 6.42098 0.21967 6.28033C0.0790176 6.13968 0 5.94891 0 5.75C0 5.55109 0.0790176 5.36032 0.21967 5.21967C0.360322 5.07902 0.551088 5 0.75 5H23.25C23.4489 5 23.6397 5.07902 23.7803 5.21967C23.921 5.36032 24 5.55109 24 5.75C24 5.94891 23.921 6.13968 23.7803 6.28033C23.6397 6.42098 23.4489 6.5 23.25 6.5ZM23.25 14H0.75C0.551088 14 0.360322 13.921 0.21967 13.7803C0.0790176 13.6397 0 13.4489 0 13.25C0 13.0511 0.0790176 12.8603 0.21967 12.7197C0.360322 12.579 0.551088 12.5 0.75 12.5H23.25C23.4489 12.5 23.6397 12.579 23.7803 12.7197C23.921 12.8603 24 13.0511 24 13.25C24 13.4489 23.921 13.6397 23.7803 13.7803C23.6397 13.921 23.4489 14 23.25 14ZM23.25 21.5H0.75C0.551088 21.5 0.360322 21.421 0.21967 21.2803C0.0790176 21.1397 0 20.9489 0 20.75C0 20.5511 0.0790176 20.3603 0.21967 20.2197C0.360322 20.079 0.551088 20 0.75 20H23.25C23.4489 20 23.6397 20.079 23.7803 20.2197C23.921 20.3603 24 20.5511 24 20.75C24 20.9489 23.921 21.1397 23.7803 21.2803C23.6397 21.421 23.4489 21.5 23.25 21.5Z" fill="white"/>
</svg>
