<svg width="20" height="21" viewBox="0 0 20 21" fill="none" xmlns="http://www.w3.org/2000/svg">
<g clip-path="url(#clip0_113_2993)">
<path d="M19.8107 19.4119L14.647 14.3308C15.9992 12.8616 16.8301 10.9187 16.8301 8.78068C16.8294 4.2071 13.0623 0.5 8.41496 0.5C3.76762 0.5 0.000488281 4.2071 0.000488281 8.78068C0.000488281 13.3543 3.76762 17.0614 8.41496 17.0614C10.4229 17.0614 12.2646 16.3668 13.7112 15.2122L18.8949 20.3134C19.1475 20.5622 19.5576 20.5622 19.8101 20.3134C19.8702 20.2547 19.918 20.1846 19.9506 20.1072C19.9832 20.0299 20 19.9467 20.0001 19.8628C20.0001 19.7788 19.9834 19.6957 19.9509 19.6182C19.9184 19.5408 19.8707 19.4707 19.8107 19.4119ZM8.41496 15.7873C4.4828 15.7873 1.29517 12.6504 1.29517 8.78068C1.29517 4.91101 4.4828 1.77403 8.41496 1.77403C12.3471 1.77403 15.5347 4.91101 15.5347 8.78068C15.5347 12.6504 12.3471 15.7873 8.41496 15.7873Z" fill="white"/>
</g>
<defs>
<clipPath id="clip0_113_2993">
<rect width="20" height="20" fill="white" transform="translate(0 0.5)"/>
</clipPath>
</defs>
</svg>
