<svg width="26" height="25" viewBox="0 0 26 25" fill="none" xmlns="http://www.w3.org/2000/svg">
<rect x="0.5" y="2.67029e-05" width="25" height="25" rx="1.25" fill="white"/>
<path d="M5.71919 12.1088L8.593 13.1804L9.71329 16.7849C9.762 17.0284 10.0543 17.0771 10.2491 16.931L11.8565 15.6159C12.0026 15.4697 12.2461 15.4697 12.441 15.6159L15.3148 17.7103C15.5096 17.8564 15.8019 17.759 15.8506 17.5155L17.9937 7.2867C18.0424 7.04316 17.7989 6.79962 17.5554 6.89703L5.71919 11.4756C5.42694 11.573 5.42694 12.0114 5.71919 12.1088ZM9.56717 12.6446L15.2173 9.18633C15.3148 9.13762 15.4122 9.28375 15.3148 9.33246L10.6875 13.6675C10.5413 13.8136 10.3952 14.0085 10.3952 14.252L10.2491 15.421C10.2491 15.5671 10.0055 15.6158 9.95683 15.421L9.37232 13.2778C9.2262 13.0343 9.32363 12.742 9.56717 12.6446Z" fill="#6C7F9A"/>
</svg>
