<svg width="25" height="25" viewBox="0 0 25 25" fill="none" xmlns="http://www.w3.org/2000/svg">
<rect width="25" height="25" rx="1.25" fill="#0E131D"/>
<path fill-rule="evenodd" clip-rule="evenodd" d="M18.6848 15.7005C18.4126 15.194 17.3072 14.1029 17.3072 14.1029C16.2876 13.1485 16.2876 13.0847 17.2473 11.8268L17.7199 11.2031C18.7785 9.76955 18.8462 9.2969 18.7889 9.14195C18.7564 9.04429 18.5832 9.00653 18.3306 9.00653H16.0116C15.9555 9.00586 15.9001 9.01882 15.8501 9.04429C15.7859 9.08259 15.731 9.17833 15.7089 9.21694C15.7077 9.21903 15.7066 9.22094 15.7056 9.22268C15.4878 9.79361 15.2288 10.348 14.9309 10.8815C13.9647 12.5391 13.608 12.5391 13.4895 12.5391C13.4369 12.5389 13.3855 12.524 13.341 12.4961C13.0007 12.2714 13.0154 11.7253 13.0284 11.2431L13.0285 11.2396C13.0285 11.1939 13.0296 11.1497 13.0306 11.1068C13.0315 11.0665 13.0324 11.0274 13.0324 10.9896C13.0324 10.6302 13.0441 10.3255 13.0559 10.056C13.0936 9.10679 13.0845 8.82945 12.6548 8.72658C12.4426 8.6732 12.2915 8.63544 11.7056 8.62762H11.4048C10.8645 8.62762 10.3202 8.64976 10.0181 8.8008C9.91533 8.85229 9.82645 8.92777 9.75899 9.02085C9.92566 9.0521 10.2004 9.13674 10.3619 9.3594C10.5871 9.66669 10.5884 10.3073 10.5884 10.3685C10.608 10.694 10.69 12.263 10.2499 12.5078C10.1942 12.5379 10.1321 12.554 10.0689 12.5547C9.73165 12.5547 9.31108 12.0651 8.62488 10.8594C8.2486 10.2018 8.00306 9.60901 7.90383 9.36945C7.89146 9.33959 7.88137 9.31522 7.87358 9.2969C7.81368 9.15497 7.72774 8.99481 7.46472 8.99481H5.49207C5.27201 8.99481 5.07019 9.12111 5.16785 9.35679C5.18087 9.39065 6.73035 13.0339 8.4517 14.8503C9.85795 16.3334 11.4452 16.4401 11.7499 16.4401H12.6444C12.8098 16.4401 13.0442 16.2696 13.0442 15.9727C13.0442 15.0222 13.3645 14.6654 13.6145 14.5847C13.6544 14.5716 13.6962 14.5651 13.7382 14.5651C14.0689 14.5651 14.397 14.9453 14.7759 15.3854L14.7774 15.3871C15.0308 15.6822 15.2907 15.9848 15.5546 16.1693C15.8983 16.4063 16.1822 16.4414 16.3176 16.4414H18.2707C18.3775 16.4336 18.69 16.3451 18.7811 16.1654C18.8358 16.0573 18.8098 15.9128 18.6991 15.7266C18.6985 15.7255 18.6979 15.7241 18.6972 15.7225C18.6946 15.7169 18.6909 15.7087 18.6848 15.7005Z" fill="white"/>
</svg>
