<svg width="25" height="25" viewBox="0 0 25 25" fill="none" xmlns="http://www.w3.org/2000/svg">
<rect width="25" height="25" rx="1.25" fill="white"/>
<path fill-rule="evenodd" clip-rule="evenodd" d="M18.6848 15.7005C18.4126 15.194 17.3072 14.1029 17.3072 14.1029C16.2876 13.1484 16.2876 13.0846 17.2473 11.8268L17.7199 11.2031C18.7785 9.76953 18.8462 9.29687 18.7889 9.14192C18.7564 9.04426 18.5832 9.0065 18.3306 9.0065H16.0116C15.9555 9.00583 15.9001 9.01879 15.8501 9.04426C15.7859 9.08256 15.731 9.1783 15.7089 9.21692C15.7077 9.219 15.7066 9.22092 15.7056 9.22265C15.4878 9.79358 15.2288 10.348 14.9309 10.8815C13.9647 12.5391 13.608 12.5391 13.4895 12.5391C13.4369 12.5389 13.3855 12.524 13.341 12.4961C13.0007 12.2714 13.0154 11.7253 13.0284 11.2431L13.0285 11.2396C13.0285 11.1939 13.0296 11.1497 13.0306 11.1068C13.0315 11.0665 13.0324 11.0274 13.0324 10.9896C13.0324 10.6302 13.0441 10.3255 13.0559 10.056C13.0936 9.10676 13.0845 8.82942 12.6548 8.72656C12.4426 8.67317 12.2915 8.63541 11.7056 8.6276H11.4048C10.8645 8.6276 10.3202 8.64973 10.0181 8.80077C9.91533 8.85227 9.82645 8.92774 9.75899 9.02083C9.92566 9.05208 10.2004 9.13671 10.3619 9.35937C10.5871 9.66666 10.5884 10.3073 10.5884 10.3685C10.608 10.694 10.69 12.263 10.2499 12.5078C10.1942 12.5379 10.1321 12.5539 10.0689 12.5547C9.73165 12.5547 9.31108 12.0651 8.62488 10.8594C8.2486 10.2017 8.00306 9.60898 7.90383 9.36942C7.89146 9.33957 7.88137 9.31519 7.87358 9.29687C7.81368 9.15494 7.72774 8.99479 7.46472 8.99479H5.49207C5.27201 8.99479 5.07019 9.12109 5.16785 9.35676C5.18087 9.39062 6.73035 13.0338 8.4517 14.8503C9.85795 16.3333 11.4452 16.4401 11.7499 16.4401H12.6444C12.8098 16.4401 13.0442 16.2695 13.0442 15.9727C13.0442 15.0221 13.3645 14.6654 13.6145 14.5846C13.6544 14.5716 13.6962 14.565 13.7382 14.5651C14.0689 14.5651 14.397 14.9453 14.7759 15.3854L14.7774 15.3871C15.0308 15.6821 15.2907 15.9847 15.5546 16.1693C15.8983 16.4062 16.1822 16.4414 16.3176 16.4414H18.2707C18.3775 16.4336 18.69 16.345 18.7811 16.1654C18.8358 16.0573 18.8098 15.9128 18.6991 15.7266C18.6985 15.7254 18.6979 15.7241 18.6972 15.7225C18.6946 15.7169 18.6909 15.7087 18.6848 15.7005Z" fill="#6C7F9A"/>
</svg>
