<svg width="25" height="25" viewBox="0 0 25 25" fill="none" xmlns="http://www.w3.org/2000/svg">
<rect width="25" height="25" rx="1.25" fill="#0E131D"/>
<path d="M16.4787 8.51544C15.4203 7.46075 14.0091 6.87482 12.5196 6.87482C9.42291 6.87482 6.9142 9.37482 6.9142 12.4608C6.9142 13.4373 7.18859 14.4139 7.65897 15.2342L6.875 18.1248L9.85409 17.3436C10.6773 17.7733 11.5788 18.0076 12.5196 18.0076C15.6163 18.0076 18.125 15.5076 18.125 12.4217C18.0858 10.9764 17.537 9.57013 16.4787 8.51544ZM15.2243 14.4529C15.1067 14.7654 14.5579 15.0779 14.2835 15.117C14.0483 15.1561 13.7348 15.1561 13.4212 15.0779C13.2252 14.9998 12.9508 14.9217 12.6372 14.7654C11.226 14.1795 10.3245 12.7733 10.2461 12.6561C10.1677 12.5779 9.6581 11.9139 9.6581 11.2108C9.6581 10.5076 10.0109 10.1951 10.1285 10.0389C10.2461 9.88263 10.4029 9.88263 10.5205 9.88263C10.5989 9.88263 10.7165 9.88263 10.7949 9.88263C10.8733 9.88263 10.9909 9.84357 11.1084 10.117C11.226 10.3904 11.5004 11.0936 11.5396 11.1326C11.5788 11.2108 11.5788 11.2889 11.5396 11.367C11.5004 11.4451 11.4612 11.5233 11.3828 11.6014C11.3044 11.6795 11.226 11.7967 11.1868 11.8358C11.1084 11.9139 11.0301 11.992 11.1084 12.1092C11.1868 12.2654 11.4612 12.6951 11.8924 13.0858C12.4412 13.5545 12.8724 13.7108 13.0292 13.7889C13.186 13.867 13.2644 13.8279 13.3428 13.7498C13.4212 13.6717 13.6956 13.3592 13.774 13.2029C13.8524 13.0467 13.9699 13.0858 14.0875 13.1248C14.2051 13.1639 14.9107 13.5154 15.0283 13.5936C15.1851 13.6717 15.2635 13.7108 15.3027 13.7498C15.3419 13.867 15.3419 14.1404 15.2243 14.4529Z" fill="white"/>
</svg>
